<?xml version="1.0" encoding="UTF-8"?>
<!DOCTYPE svg PUBLIC "-//W3C//DTD SVG 1.1//EN" "http://www.w3.org/Graphics/SVG/1.1/DTD/svg11.dtd">
<!-- Creator: CorelDRAW 2019 -->
<svg xmlns="http://www.w3.org/2000/svg" xml:space="preserve" width="72.1544mm" height="27.7313mm" version="1.1" style="shape-rendering:geometricPrecision; text-rendering:geometricPrecision; image-rendering:optimizeQuality; fill-rule:evenodd; clip-rule:evenodd"
viewBox="0 0 994.73 382.31"
 xmlns:xlink="http://www.w3.org/1999/xlink"
 xmlns:xodm="http://www.corel.com/coreldraw/odm/2003">
 <defs>
  <style type="text/css">
   <![CDATA[
    .fil0 {fill:black}
   ]]>
  </style>
 </defs>
 <g id="Layer_x0020_1">
  <metadata id="CorelCorpID_0Corel-Layer"/>
  <g id="_2101034904">
   <path class="fil0" d="M452.6 136.98c2.81,17.32 1.25,48.71 0.54,67.05l-66.65 -0.02c-1.96,-19.93 -2.17,-145.98 0.36,-163.63 17.62,-1.44 40.99,-0.45 59.12,-0.27 15.08,0.15 42.52,4.62 45.68,-16.12 3.65,-23.92 -20.94,-22.57 -37.15,-22.44 -20.4,0.16 -40.83,-0.16 -61.23,0.03 -57.23,0.53 -45.93,27.34 -45.73,75.16 0.17,40.76 -0.41,81.64 0.01,122.37 0.58,56.63 31.58,43.29 77.07,43.51 16.14,0.08 41.99,3.2 56.32,-4.29 15.77,-8.24 11.14,-34.57 11.13,-50.6 -0.04,-77.31 8.19,-89.11 -31.86,-89.7 -16.01,-0.24 -42.06,-3.96 -44.9,16.22 -3.53,25.01 21.06,21.22 37.3,22.74z"/>
   <path class="fil0" d="M113.82 99.06c0.88,-14 43.76,-66.24 40.79,-83.42 -2.05,-11.83 -16.24,-17.58 -26.7,-13.65 -8.97,3.37 -27.8,40.63 -33.27,50.69 -4.74,8.71 -9.75,17.97 -14.84,26.46 -8.25,13.77 -5.73,19.85 -23.46,17.07 -15.48,-2.43 -17.08,-11.02 -17.35,-25.1 -0.26,-13.77 0.34,-27.56 0.44,-41.32 0.29,-40.85 -34.75,-34.57 -37.91,-11.6 -2.19,15.95 -2.48,63.6 2.15,78.26 3.06,9.7 9.41,18.4 16.72,24.57 11.34,9.56 18.83,8.95 26.62,14.26 -7.24,20.6 -45.14,72.37 -46.32,85.36 -1.14,12.54 8.64,21.65 20.97,20.71 12.9,-0.98 16.45,-11.68 22.19,-21.73 12.72,-22.3 36.15,-67.65 47.65,-83.95 16.05,0.96 23.26,4.46 25.13,21.41 3.1,28.06 -7.41,67.37 6.65,80.12 8.82,8 24.6,4.45 29.32,-5.62 4.12,-8.81 3.22,-72.84 1.61,-85.02 -4.79,-36.2 -34.02,-42.5 -40.41,-47.5z"/>
   <path class="fil0" d="M547.51 40.3c13.34,-0.97 60.21,-3.13 69.95,4.37 9.85,7.59 6.3,54.08 6.3,67.63 -0,25 0.47,50.47 -0.08,75.41 -0.39,17.58 -6.68,55.37 20.1,54.69 26.33,-0.67 18.63,-40.53 18.63,-57.54 0,-24.66 0.51,-49.32 0.45,-73.99 -0.09,-40.15 7.49,-94.04 -42,-106.57 -21.75,-5.51 -49.84,-3.13 -72.47,-2.76 -26.29,0.43 -39.66,4.84 -40.25,33.88 -1,49.39 0,99.92 0,149.43 0,32.13 -6.07,56.98 18.93,57.6 26.78,0.66 19.73,-37.55 19.56,-54.75 -0.22,-22.95 -2.32,-133.39 0.87,-147.42z"/>
   <path class="fil0" d="M48.82 381.89c0.78,-7.12 -10.23,-9.78 1.99,-21.6 14.72,-14.25 54.04,-23.99 73.36,-29.11 36.79,-9.75 76.65,-15.85 114.41,-20.71 208.17,-26.78 423.87,-28.01 631.4,5.34l110.62 21.76c-126.19,-53.83 -391.29,-66.4 -530.37,-65.1 -104.88,0.98 -298.96,11.98 -400.33,47.08 -82.98,28.72 -18.4,67.17 -1.08,62.34z"/>
   <path class="fil0" d="M718.2 40.28c18.91,-0.99 85.45,3.56 97.37,-3.7 11.38,-6.92 10.79,-28.19 -3.28,-33.1 -10.78,-3.76 -84.54,-2.34 -100.29,-1.92 -14.17,0.38 -27.81,5.14 -31.17,19.69 -4.09,17.72 -2.23,79.23 -2.28,101.02 -0.28,135.66 -9.98,118.74 86.15,120.35 12.81,0.22 35.89,2.77 46.8,-3.81 12.26,-7.39 18.26,-23.9 3.28,-31.45 -16.1,-8.11 -73.66,-1.34 -95.95,-3.64 -1.88,-5.06 -2.46,-152.51 -0.63,-163.44z"/>
   <path class="fil0" d="M225.75 200.15c4.38,15.16 7.32,41.8 28.04,41.33 18.99,-0.43 22.06,-27.5 26.77,-42.74 5.48,-17.75 10.83,-35.58 16.43,-53.28 11.15,-35.27 21.33,-71.45 33,-106.45 3.02,-9.06 7.15,-18.74 2.42,-27.94 -4.55,-8.87 -14.39,-12.63 -23.69,-9.03 -13.23,5.12 -18.62,34.65 -22.34,47.44 -5.44,18.74 -26.56,92.11 -33.37,104.92 -6.19,-11.61 -27.95,-87.35 -33.59,-105.83 -3.9,-12.79 -8.34,-43.66 -22.88,-46.98 -9.7,-2.22 -19.99,1.68 -23.59,11.36 -3.17,8.52 1.1,18.88 3.68,27.21 10.99,35.51 21.7,71.14 32.79,106.62 5.53,17.68 11.19,35.6 16.33,53.38z"/>
   <path class="fil0" d="M897.02 136.77c6.04,47.39 -13.3,104.78 19.93,104.77 23.12,-0.01 19.22,-27.43 19.14,-43.86 -0.54,-99 -3.88,-45.17 34.42,-73.08 9.2,-6.71 15.77,-14.15 19.75,-25.82 4.16,-12.2 6.41,-75.02 2.27,-86.22 -4.17,-11.29 -20.87,-15.87 -30.37,-7.31 -8.72,7.85 -7.44,27.94 -7.03,38.77 1.65,43.83 7.12,53.13 -39.6,52.83 -38.9,-0.26 -38.13,-0.11 -37.28,-54.25 0.19,-12.12 3.14,-29.14 -7.28,-37.96 -9.57,-8.1 -26.28,-3.16 -29.98,8.93 -4,13.07 -2.04,70.8 2.12,84.4 10.38,33.88 46.4,34.98 53.9,38.81z"/>
  </g>
 </g>
</svg>
