<?xml version="1.0" encoding="UTF-8"?>
<!DOCTYPE svg PUBLIC "-//W3C//DTD SVG 1.1//EN" "http://www.w3.org/Graphics/SVG/1.1/DTD/svg11.dtd">
<!-- Creator: CorelDRAW 2019 -->
<svg xmlns="http://www.w3.org/2000/svg" xml:space="preserve" width="72.1544mm" height="27.7313mm" version="1.1" style="shape-rendering:geometricPrecision; text-rendering:geometricPrecision; image-rendering:optimizeQuality; fill-rule:evenodd; clip-rule:evenodd"
viewBox="0 0 999.49 384.14"
 xmlns:xlink="http://www.w3.org/1999/xlink"
 xmlns:xodm="http://www.corel.com/coreldraw/odm/2003">
 <defs>
  <style type="text/css">
   <![CDATA[
    .fil0 {fill:#FEFEFE}
   ]]>
  </style>
 </defs>
 <g id="Layer_x0020_1">
  <metadata id="CorelCorpID_0Corel-Layer"/>
  <g id="_385156472">
   <path class="fil0" d="M454.76 137.63c2.82,17.4 1.26,48.94 0.54,67.37l-66.97 -0.02c-1.97,-20.03 -2.18,-146.68 0.36,-164.41 17.71,-1.45 41.19,-0.45 59.4,-0.27 15.16,0.15 42.72,4.64 45.9,-16.2 3.66,-24.04 -21.04,-22.68 -37.32,-22.55 -20.5,0.16 -41.03,-0.16 -61.52,0.03 -57.5,0.54 -46.15,27.47 -45.95,75.52 0.17,40.95 -0.41,82.03 0.01,122.96 0.59,56.91 31.73,43.49 77.44,43.72 16.22,0.08 42.19,3.21 56.59,-4.31 15.85,-8.28 11.19,-34.74 11.18,-50.85 -0.04,-77.68 8.23,-89.54 -32.02,-90.13 -16.09,-0.24 -42.26,-3.98 -45.12,16.3 -3.54,25.13 21.16,21.32 37.47,22.85z"/>
   <path class="fil0" d="M114.36 99.53c0.88,-14.07 43.97,-66.56 40.99,-83.82 -2.06,-11.89 -16.32,-17.66 -26.83,-13.72 -9.01,3.38 -27.93,40.83 -33.43,50.93 -4.76,8.75 -9.8,18.05 -14.91,26.58 -8.29,13.83 -5.76,19.95 -23.57,17.15 -15.55,-2.44 -17.16,-11.08 -17.43,-25.22 -0.26,-13.84 0.34,-27.69 0.44,-41.52 0.29,-41.04 -34.92,-34.73 -38.09,-11.65 -2.2,16.03 -2.49,63.91 2.16,78.63 3.08,9.75 9.45,18.49 16.8,24.68 11.39,9.61 18.92,9 26.75,14.33 -7.28,20.7 -45.35,72.72 -46.54,85.77 -1.15,12.6 8.68,21.75 21.07,20.81 12.96,-0.98 16.53,-11.73 22.29,-21.83 12.78,-22.4 36.33,-67.98 47.88,-84.35 16.12,0.97 23.37,4.48 25.25,21.52 3.11,28.2 -7.44,67.69 6.69,80.51 8.86,8.04 24.72,4.47 29.46,-5.65 4.14,-8.85 3.24,-73.19 1.62,-85.43 -4.82,-36.38 -34.18,-42.7 -40.6,-47.73z"/>
   <path class="fil0" d="M550.13 40.49c13.4,-0.97 60.5,-3.14 70.28,4.4 9.9,7.63 6.33,54.34 6.33,67.96 -0,25.12 0.48,50.71 -0.08,75.78 -0.39,17.67 -6.72,55.63 20.19,54.95 26.46,-0.67 18.72,-40.72 18.72,-57.81 0,-24.77 0.51,-49.55 0.46,-74.35 -0.09,-40.34 7.52,-94.49 -42.2,-107.08 -21.86,-5.54 -50.08,-3.14 -72.81,-2.77 -26.41,0.43 -39.85,4.86 -40.44,34.05 -1,49.62 0,100.4 0,150.15 0,32.29 -6.09,57.25 19.02,57.88 26.91,0.66 19.83,-37.73 19.66,-55.02 -0.23,-23.06 -2.34,-134.03 0.88,-148.13z"/>
   <path class="fil0" d="M49.06 383.72c0.78,-7.15 -10.28,-9.82 2,-21.7 14.8,-14.32 54.3,-24.1 73.71,-29.25 36.97,-9.79 77.01,-15.93 114.96,-20.81 209.16,-26.91 425.9,-28.14 634.42,5.37l111.15 21.87c-126.8,-54.09 -393.16,-66.72 -532.91,-65.41 -105.38,0.99 -300.39,12.04 -402.25,47.3 -83.37,28.86 -18.49,67.49 -1.08,62.64z"/>
   <path class="fil0" d="M721.64 40.47c19.01,-1 85.86,3.58 97.84,-3.72 11.43,-6.96 10.84,-28.33 -3.3,-33.26 -10.83,-3.78 -84.94,-2.35 -100.77,-1.93 -14.24,0.38 -27.94,5.17 -31.32,19.78 -4.11,17.81 -2.24,79.61 -2.29,101.51 -0.29,136.31 -10.02,119.31 86.56,120.93 12.87,0.22 36.06,2.78 47.03,-3.83 12.32,-7.43 18.35,-24.02 3.29,-31.6 -16.17,-8.15 -74.01,-1.35 -96.41,-3.66 -1.89,-5.08 -2.48,-153.24 -0.63,-164.22z"/>
   <path class="fil0" d="M226.83 201.11c4.4,15.23 7.36,42 28.17,41.53 19.08,-0.43 22.17,-27.63 26.9,-42.95 5.51,-17.83 10.88,-35.75 16.5,-53.54 11.21,-35.44 21.43,-71.79 33.16,-106.95 3.04,-9.11 7.18,-18.83 2.44,-28.07 -4.57,-8.91 -14.46,-12.69 -23.8,-9.07 -13.29,5.15 -18.71,34.82 -22.44,47.67 -5.47,18.83 -26.69,92.55 -33.53,105.42 -6.22,-11.66 -28.09,-87.77 -33.75,-106.33 -3.92,-12.86 -8.38,-43.87 -22.99,-47.21 -9.75,-2.23 -20.09,1.69 -23.7,11.41 -3.18,8.56 1.1,18.97 3.69,27.34 11.05,35.68 21.8,71.48 32.95,107.13 5.55,17.77 11.25,35.77 16.41,53.64z"/>
   <path class="fil0" d="M901.31 137.43c6.07,47.61 -13.36,105.28 20.03,105.27 23.23,-0.01 19.32,-27.56 19.23,-44.07 -0.54,-99.48 -3.9,-45.38 34.58,-73.43 9.25,-6.74 15.85,-14.21 19.85,-25.95 4.18,-12.26 6.44,-75.38 2.28,-86.64 -4.19,-11.34 -20.97,-15.94 -30.52,-7.35 -8.76,7.89 -7.47,28.08 -7.07,38.95 1.66,44.04 7.16,53.38 -39.79,53.08 -39.09,-0.26 -38.31,-0.11 -37.46,-54.51 0.19,-12.18 3.15,-29.28 -7.31,-38.14 -9.61,-8.13 -26.4,-3.17 -30.13,8.97 -4.02,13.13 -2.05,71.14 2.13,84.8 10.43,34.04 46.62,35.15 54.16,39z"/>
  </g>
 </g>
</svg>
